# Blender v2.78 (sub 0) OBJ File: '18.blend'
# www.blender.org
mtllib Tomato_01.mtl
o Tomato_Circle.024
v -0.000000 3.215664 -5.234676
v -3.701475 3.215664 -3.701475
v -5.234676 3.215664 0.000000
v -3.701475 3.215664 3.701475
v 0.000000 3.215664 5.234676
v 3.701476 3.215664 3.701474
v 5.234676 3.215664 -0.000000
v 3.701476 3.215664 -3.701475
v 0.000000 4.615401 -4.921357
v -3.479925 4.615401 -3.479925
v -4.921357 4.615401 0.000000
v -3.479925 4.615401 3.479925
v 0.000000 4.615401 4.921357
v 3.479926 4.615401 3.479924
v 4.921358 4.615401 -0.000000
v 3.479926 4.615401 -3.479925
v 0.000000 6.456840 -2.891898
v -2.044881 6.456840 -2.044881
v -2.891898 6.456840 0.000000
v -2.044881 6.456840 2.044881
v 0.000000 6.456840 2.891898
v 2.044881 6.456840 2.044880
v 2.891898 6.456840 -0.000000
v 2.044881 6.456840 -2.044881
v 0.000000 6.185543 -1.234580
v -0.872980 6.185543 -0.872980
v -1.234580 6.185543 0.000000
v -0.872980 6.185543 0.872980
v 0.000000 6.185543 1.234580
v 0.872980 6.185543 0.872980
v 1.234580 6.185543 -0.000000
v 0.872980 6.185543 -0.872980
v 0.000000 1.374683 -4.721346
v -3.338496 1.374683 -3.338496
v -4.721346 1.374683 0.000000
v -3.338496 1.374683 3.338496
v 0.000000 1.374683 4.721346
v 3.338497 1.374683 3.338495
v 4.721346 1.374683 -0.000000
v 3.338497 1.374683 -3.338496
v 0.000000 0.093203 -2.083975
v -1.473593 0.093203 -1.473593
v -2.083974 0.093203 0.000000
v -1.473593 0.093203 1.473593
v 0.000000 0.093203 2.083975
v 1.473593 0.093203 1.473593
v 2.083975 0.093203 -0.000000
v 1.473593 0.093203 -1.473593
v 0.000000 0.486604 -0.682814
v -0.482822 0.486604 -0.482822
v -0.682813 0.486604 0.000000
v -0.482822 0.486604 0.482822
v 0.000000 0.486604 0.682814
v 0.482822 0.486604 0.482822
v 0.682814 0.486604 -0.000000
v 0.482822 0.486604 -0.482822
v 0.000000 0.568790 -0.000000
v 0.000000 6.131856 0.000000
v -0.138826 6.436767 0.049467
v -0.098165 6.425516 0.146984
v 0.000000 6.420856 0.187377
v 0.098165 6.425516 0.146984
v 0.138826 6.436767 0.049467
v 0.098165 6.448018 -0.048051
v 0.000000 6.452678 -0.088444
v 0.000000 6.259916 -1.234580
v -0.872980 6.259916 -0.872980
v -1.234580 6.259916 0.000000
v -0.872980 6.259916 0.872980
v 0.000000 6.259916 1.234580
v 0.872980 6.259916 0.872980
v 1.234580 6.259916 -0.000000
v 0.872980 6.259916 -0.872980
v 0.227649 6.206229 -0.000000
v 0.160972 6.206229 0.160972
v 0.000000 6.206229 0.227649
v -0.160972 6.206229 0.160972
v -0.227649 6.206229 0.000000
v -0.160972 6.206229 -0.160972
v 0.000000 6.206229 -0.227649
v 0.160972 6.206229 -0.160972
v 0.421422 6.669057 -2.506897
v -2.070635 6.669057 -1.474653
v -2.506897 6.669057 -0.421422
v -1.474653 6.669057 2.070635
v -0.421422 6.669057 2.506897
v 2.070635 6.669057 1.474653
v 2.506897 6.669057 0.421422
v 1.474653 6.669057 -2.070634
v 1.287935 6.669057 -3.375626
v -3.297635 6.669057 -1.476220
v -3.375626 6.669057 -1.287934
v -1.476221 6.669057 3.297635
v -1.287934 6.669057 3.375626
v 3.297635 6.669057 1.476220
v 3.375626 6.669057 1.287934
v 1.476221 6.669057 -3.297635
v -0.098165 6.448018 -0.048051
v 0.098165 7.311179 0.326990
v 0.000000 7.316052 0.367358
v 0.138826 7.299416 0.229533
v 0.098165 7.287651 0.132076
v -0.098164 7.287651 0.132076
v 0.000000 7.282779 0.091708
v -0.138825 7.299416 0.229533
v -0.098164 7.311179 0.326990
v 0.114670 8.402760 0.211850
v -0.000000 8.408452 0.259005
v 0.162168 8.389017 0.098006
v 0.114670 8.375275 -0.015837
v -0.114670 8.375275 -0.015837
v -0.000000 8.369583 -0.062993
v -0.162168 8.389017 0.098006
v -0.114670 8.402760 0.211850
v 0.140519 8.146603 0.127268
v 0.099362 8.134695 0.028622
v 0.099362 8.158510 0.225915
v -0.140519 8.146603 0.127268
v -0.099362 8.134695 0.028622
v -0.000000 8.129763 -0.012238
v -0.000000 8.163443 0.266775
v -0.099362 8.158510 0.225915
v 0.000000 6.151543 -1.234580
v -0.872980 6.151543 -0.872980
v -1.234580 6.151543 0.000000
v -0.872980 6.151543 0.872980
v 0.000000 6.151543 1.234580
v 0.872980 6.151543 0.872980
v 1.234580 6.151543 -0.000000
v 0.872980 6.151543 -0.872980
v 0.227649 6.097856 -0.000000
v 0.160972 6.097856 0.160972
v 0.000000 6.097856 0.227649
v -0.160972 6.097856 0.160972
v -0.227649 6.097856 0.000000
v -0.160972 6.097856 -0.160972
v 0.000000 6.097856 -0.227649
v 0.160972 6.097856 -0.160972
v 0.421422 6.560683 -2.506897
v -2.070635 6.560683 -1.474653
v -2.506897 6.560683 -0.421422
v -1.474653 6.560683 2.070635
v -0.421422 6.560683 2.506897
v 2.070635 6.560683 1.474653
v 2.506897 6.560683 0.421422
v 1.474653 6.560683 -2.070634
v 1.287935 6.560683 -3.375626
v -3.297635 6.560683 -1.476220
v -3.375626 6.560683 -1.287934
v -1.476221 6.560683 3.297635
v -1.287934 6.560683 3.375626
v 3.297635 6.560683 1.476220
v 3.375626 6.560683 1.287934
v 1.476221 6.560683 -3.297635
v 2.497557 0.207771 -2.497556
v 3.532079 0.207771 -0.000000
v 2.497557 0.207771 2.497556
v 0.000000 0.207771 3.532079
v -2.497557 0.207771 2.497557
v -3.532079 0.207771 0.000000
v -2.497557 0.207771 -2.497557
v 0.000000 0.207771 -3.532079
v 4.097858 5.844460 -0.000000
v 2.897624 5.844460 -2.897623
v 0.000000 5.844460 4.097858
v 2.897624 5.844460 2.897623
v -4.097858 5.844460 0.000000
v -2.897624 5.844460 2.897623
v 0.000000 5.844460 -4.097858
v -2.897624 5.844460 -2.897623
vn 0.3748 0.2025 -0.9047
vn 0.9047 0.2025 0.3748
vn -0.3748 0.2025 0.9047
vn -0.9047 0.2025 -0.3748
vn 0.9047 0.2025 -0.3748
vn 0.3748 0.2025 0.9047
vn -0.9047 0.2025 0.3748
vn -0.3748 0.2025 -0.9047
vn 0.4450 0.8764 -0.1843
vn 0.1843 0.8764 0.4450
vn -0.4450 0.8764 0.1843
vn -0.1843 0.8764 -0.4450
vn 0.1843 0.8764 -0.4450
vn 0.4450 0.8764 0.1843
vn -0.1843 0.8764 0.4450
vn -0.4450 0.8764 -0.1843
vn -0.1612 0.9847 -0.0668
vn 0.0668 0.9847 -0.1612
vn 0.1612 0.9847 0.0668
vn -0.1612 0.9847 0.0668
vn -0.0668 0.9847 -0.1612
vn 0.1612 0.9847 -0.0668
vn 0.0668 0.9847 0.1612
vn -0.0668 0.9847 0.1612
vn 0.3706 -0.2495 -0.8947
vn 0.8947 -0.2495 0.3706
vn -0.3706 -0.2495 0.8947
vn -0.8947 -0.2495 -0.3706
vn 0.8947 -0.2495 -0.3706
vn 0.3706 -0.2495 0.8947
vn -0.8947 -0.2495 0.3706
vn -0.3706 -0.2495 -0.8947
vn 0.0788 -0.9964 -0.0327
vn 0.0327 -0.9964 0.0788
vn -0.0788 -0.9964 0.0327
vn -0.0327 -0.9964 -0.0788
vn 0.0327 -0.9964 -0.0788
vn 0.0788 -0.9964 0.0327
vn -0.0327 -0.9964 0.0788
vn -0.0788 -0.9964 -0.0327
vn 0.2686 -0.9568 0.1113
vn -0.2686 -0.9568 0.1113
vn -0.1113 -0.9568 -0.2686
vn 0.2686 -0.9568 -0.1113
vn 0.1113 -0.9568 0.2686
vn -0.1113 -0.9568 0.2686
vn -0.2686 -0.9568 -0.1113
vn 0.1113 -0.9568 -0.2686
vn -0.0494 -0.9916 0.1194
vn -0.1194 -0.9916 -0.0494
vn 0.0494 -0.9916 -0.1194
vn 0.1194 -0.9916 0.0494
vn -0.1194 -0.9916 0.0494
vn -0.0494 -0.9916 -0.1194
vn 0.1194 -0.9916 -0.0494
vn 0.0494 -0.9916 0.1194
vn 0.0180 0.9989 0.0434
vn -0.0180 0.9989 0.0434
vn -0.0434 0.9989 -0.0180
vn 0.0180 0.9989 -0.0434
vn 0.0434 0.9989 0.0180
vn -0.0434 0.9989 0.0180
vn -0.0180 0.9989 -0.0434
vn 0.0434 0.9989 -0.0180
vn -0.6726 -0.6855 -0.2786
vn -0.2786 -0.6855 0.6726
vn 0.6726 -0.6855 0.2786
vn 0.2786 -0.6855 -0.6726
vn -0.2786 -0.6855 -0.6726
vn -0.6726 -0.6855 0.2786
vn 0.2786 -0.6855 0.6726
vn 0.6726 -0.6855 -0.2786
vn -0.7856 0.5263 -0.3254
vn -0.3254 0.5263 0.7856
vn 0.7856 0.5263 0.3254
vn 0.3254 0.5263 -0.7856
vn -0.3254 0.5263 -0.7856
vn -0.7856 0.5263 0.3254
vn 0.3254 0.5263 0.7856
vn 0.7856 0.5263 -0.3254
vn -0.0220 0.9983 0.0532
vn -0.0532 0.9983 -0.0220
vn 0.0220 0.9983 -0.0532
vn 0.0532 0.9983 0.0220
vn 0.2704 0.9562 0.1120
vn -0.1120 0.9562 0.2704
vn 0.1120 0.9562 -0.2704
vn -0.2704 0.9562 -0.1120
vn 0.0000 1.0000 -0.0000
vn -0.8854 0.2685 0.3794
vn 0.3451 0.4653 -0.8151
vn 0.8559 0.3911 -0.3384
vn 0.9198 0.0812 -0.3839
vn -0.3729 0.1957 -0.9070
vn -0.9198 0.0812 -0.3839
vn -0.8559 0.3911 -0.3384
vn 0.3738 0.1682 0.9121
vn 0.8854 0.2685 0.3794
vn -0.3451 0.4653 -0.8151
vn -0.3738 0.1682 0.9121
vn -0.9208 -0.1268 -0.3689
vn 0.9208 -0.0353 0.3884
vn 0.9208 -0.1268 -0.3689
vn -0.3738 -0.1838 0.9091
vn 0.3729 0.1957 -0.9070
vn -0.9200 -0.0791 0.3839
vn 0.3738 -0.1838 0.9091
vn 0.9200 -0.0791 0.3839
vn 0.0000 0.9928 -0.1198
vn -0.3814 -0.1914 -0.9044
vn 0.3814 0.0293 0.9239
vn 0.3814 -0.1914 -0.9044
vn -0.3814 0.0293 0.9239
vn -0.9208 -0.0353 0.3884
vn -0.9239 0.0440 0.3801
vn -0.3827 0.1089 0.9174
vn 0.3827 -0.1125 -0.9170
vn 0.3827 0.1089 0.9174
vn -0.3827 -0.1125 -0.9170
vn 0.9239 -0.0477 -0.3797
vn 0.9239 0.0440 0.3801
vn -0.9239 -0.0477 -0.3797
vn 0.7062 0.0000 -0.7080
vn -0.0000 0.0000 -1.0000
vn -0.0013 0.0000 1.0000
vn -0.3144 0.0000 0.9493
vn -0.7071 0.0000 0.7071
vn -0.7062 0.0000 0.7080
vn 0.4489 0.0000 -0.8936
vn 0.7071 0.0000 0.7071
vn 0.0013 0.0000 -1.0000
vn -0.9493 0.0000 -0.3144
vn 0.7071 0.0000 -0.7071
vn -0.7080 0.0000 -0.7062
vn 0.8936 0.0000 0.4489
vn -1.0000 0.0000 0.0000
vn 1.0000 0.0000 0.0013
vn 0.9493 0.0000 0.3144
vn 0.7080 0.0000 0.7062
vn -0.8936 0.0000 -0.4489
vn -1.0000 0.0000 -0.0013
vn 0.3144 0.0000 -0.9493
vn -0.4489 0.0000 0.8936
vn -0.9239 0.0000 -0.3827
vn 0.0000 0.0000 1.0000
vn -0.9239 0.0000 0.3827
vn -0.3827 0.0000 0.9239
vn -0.3827 0.0000 -0.9239
vn 0.9239 0.0000 0.3827
vn 0.9239 0.0000 -0.3827
vn 1.0000 0.0000 -0.0000
vn 0.3827 0.0000 -0.9239
vn 0.3827 0.0000 0.9239
vn -0.7071 0.0000 -0.7071
vn 0.0000 -1.0000 0.0000
vn 0.1120 -0.9562 -0.2704
vn 0.0220 -0.9983 -0.0532
vn -0.2704 -0.9562 -0.1120
vn -0.0532 -0.9983 -0.0220
vn -0.1120 -0.9562 0.2704
vn -0.0220 -0.9983 0.0532
vn 0.2704 -0.9562 0.1120
vn 0.0532 -0.9983 0.0220
usemtl F44336
s off
f 8//1 1//1 9//1 16//1
f 6//2 7//2 15//2 14//2
f 4//3 5//3 13//3 12//3
f 2//4 3//4 11//4 10//4
f 7//5 8//5 16//5 15//5
f 5//6 6//6 14//6 13//6
f 3//7 4//7 12//7 11//7
f 1//8 2//8 10//8 9//8
f 163//9 164//9 24//9 23//9
f 165//10 166//10 22//10 21//10
f 167//11 168//11 20//11 19//11
f 169//12 170//12 18//12 17//12
f 164//13 169//13 17//13 24//13
f 166//14 163//14 23//14 22//14
f 168//15 165//15 21//15 20//15
f 170//16 167//16 19//16 18//16
f 22//17 23//17 31//17 30//17
f 20//18 21//18 29//18 28//18
f 18//19 19//19 27//19 26//19
f 23//20 24//20 32//20 31//20
f 21//21 22//21 30//21 29//21
f 19//22 20//22 28//22 27//22
f 17//23 18//23 26//23 25//23
f 24//24 17//24 25//24 32//24
f 1//25 8//25 40//25 33//25
f 7//26 6//26 38//26 39//26
f 5//27 4//27 36//27 37//27
f 3//28 2//28 34//28 35//28
f 8//29 7//29 39//29 40//29
f 6//30 5//30 37//30 38//30
f 4//31 3//31 35//31 36//31
f 2//32 1//32 33//32 34//32
f 155//33 156//33 47//33 48//33
f 157//34 158//34 45//34 46//34
f 159//35 160//35 43//35 44//35
f 161//36 162//36 41//36 42//36
f 162//37 155//37 48//37 41//37
f 156//38 157//38 46//38 47//38
f 158//39 159//39 44//39 45//39
f 160//40 161//40 42//40 43//40
f 43//41 42//41 50//41 51//41
f 48//42 47//42 55//42 56//42
f 46//43 45//43 53//43 54//43
f 44//44 43//44 51//44 52//44
f 42//45 41//45 49//45 50//45
f 41//46 48//46 56//46 49//46
f 47//47 46//47 54//47 55//47
f 45//48 44//48 52//48 53//48
f 49//49 56//49 57//49
f 55//50 54//50 57//50
f 53//51 52//51 57//51
f 51//52 50//52 57//52
f 56//53 55//53 57//53
f 54//54 53//54 57//54
f 52//55 51//55 57//55
f 50//56 49//56 57//56
f 25//57 26//57 58//57
f 32//58 25//58 58//58
f 30//59 31//59 58//59
f 28//60 29//60 58//60
f 26//61 27//61 58//61
f 31//62 32//62 58//62
f 29//63 30//63 58//63
f 27//64 28//64 58//64
f 35//65 34//65 161//65 160//65
f 37//66 36//66 159//66 158//66
f 39//67 38//67 157//67 156//67
f 33//68 40//68 155//68 162//68
f 34//69 33//69 162//69 161//69
f 36//70 35//70 160//70 159//70
f 38//71 37//71 158//71 157//71
f 40//72 39//72 156//72 155//72
f 10//73 11//73 167//73 170//73
f 12//74 13//74 165//74 168//74
f 14//75 15//75 163//75 166//75
f 16//76 9//76 169//76 164//76
f 9//77 10//77 170//77 169//77
f 11//78 12//78 168//78 167//78
f 13//79 14//79 166//79 165//79
f 15//80 16//80 164//80 163//80
usemtl 4CAF50
f 73//81 66//81 80//81 81//81
f 71//82 72//82 74//82 75//82
f 69//83 70//83 76//83 77//83
f 67//84 68//84 78//84 79//84
f 68//85 67//85 83//85 84//85
f 66//86 73//86 89//86 82//86
f 70//87 69//87 85//87 86//87
f 72//88 71//88 87//88 88//88
f 88//89 87//89 95//89 96//89
f 84//89 83//89 91//89 92//89
f 82//89 89//89 97//89 90//89
f 86//89 85//89 93//89 94//89
f 78//90 77//90 60//90 59//90
f 81//91 80//91 65//91 64//91
f 74//92 81//92 64//92 63//92
f 63//93 64//93 102//93 101//93
f 65//94 98//94 103//94 104//94
f 98//95 59//95 105//95 103//95
f 79//96 78//96 59//96 98//96
f 76//97 75//97 62//97 61//97
f 75//98 74//98 63//98 62//98
f 80//99 79//99 98//99 65//99
f 77//100 76//100 61//100 60//100
f 119//101 118//101 113//101 111//101
f 117//102 115//102 109//102 107//102
f 115//103 116//103 110//103 109//103
f 60//104 61//104 100//104 106//104
f 64//105 65//105 104//105 102//105
f 59//106 60//106 106//106 105//106
f 61//107 62//107 99//107 100//107
f 62//108 63//108 101//108 99//108
f 112//109 114//109 108//109 110//109
f 113//109 114//109 112//109 111//109
f 107//109 109//109 110//109 108//109
f 120//110 119//110 111//110 112//110
f 121//111 117//111 107//111 108//111
f 116//112 120//112 112//112 110//112
f 122//113 121//113 108//113 114//113
f 118//114 122//114 114//114 113//114
f 105//115 106//115 122//115 118//115
f 106//116 100//116 121//116 122//116
f 102//117 104//117 120//117 116//117
f 100//118 99//118 117//118 121//118
f 104//119 103//119 119//119 120//119
f 101//120 102//120 116//120 115//120
f 99//121 101//121 115//121 117//121
f 103//122 105//122 118//122 119//122
f 88//123 96//123 153//123 145//123
f 74//124 72//124 129//124 131//124
f 95//125 87//125 144//125 152//125
f 68//126 84//126 141//126 125//126
f 71//127 75//127 132//127 128//127
f 84//128 92//128 149//128 141//128
f 83//129 67//129 124//129 140//129
f 73//130 81//130 138//130 130//130
f 91//131 83//131 140//131 148//131
f 66//132 82//132 139//132 123//132
f 67//133 79//133 136//133 124//133
f 82//134 90//134 147//134 139//134
f 89//135 73//135 130//135 146//135
f 80//136 66//136 123//136 137//136
f 97//137 89//137 146//137 154//137
f 70//138 86//138 143//138 127//138
f 86//139 94//139 151//139 143//139
f 85//140 69//140 126//140 142//140
f 93//141 85//141 142//141 150//141
f 72//142 88//142 145//142 129//142
f 87//143 71//143 128//143 144//143
f 92//144 91//144 148//144 149//144
f 78//145 68//145 125//145 135//145
f 77//146 78//146 135//146 134//146
f 94//147 93//147 150//147 151//147
f 79//148 80//148 137//148 136//148
f 96//149 95//149 152//149 153//149
f 81//150 74//150 131//150 138//150
f 76//151 70//151 127//151 133//151
f 90//152 97//152 154//152 147//152
f 75//153 76//153 133//153 132//153
f 69//154 77//154 134//154 126//154
f 154//155 146//155 139//155 147//155
f 139//156 146//156 130//156 123//156
f 130//157 138//157 137//157 123//157
f 137//155 138//155 131//155 136//155
f 148//155 140//155 141//155 149//155
f 141//158 140//158 124//158 125//158
f 136//159 135//159 125//159 124//159
f 150//155 142//155 143//155 151//155
f 143//160 142//160 126//160 127//160
f 127//161 126//161 134//161 133//161
f 152//155 144//155 145//155 153//155
f 145//162 144//162 128//162 129//162
f 129//163 128//163 132//163 131//163
f 134//155 135//155 132//155 133//155
f 131//155 132//155 135//155 136//155
